<svg width="98" height="97" viewBox="0 0 98 97" fill="none" xmlns="http://www.w3.org/2000/svg">
<path d="M12.0813 65.7424V79.3882H8.3302V74.0543H3.75568V79.3882H0V65.7424H3.75568V70.7744H8.3302V65.7424H12.0813Z" fill="#484444"/>
<path d="M17.9684 65.7424H21.3901L26.1339 79.3882H22.3233L21.4953 76.7167H17.8632L17.0535 79.3882H13.2246L17.9684 65.7424ZM20.8915 74.2282L19.6793 69.9967L18.4075 74.2282H20.8915Z" fill="#484444"/>
<path d="M27.2598 79.3883V65.7425H33.5314C34.1653 65.7386 34.7915 65.881 35.3612 66.1588C35.9097 66.422 36.4033 66.7867 36.8159 67.2338C37.2203 67.6816 37.5424 68.1973 37.7674 68.7571C37.9932 69.3026 38.1113 69.8867 38.1151 70.4771C38.1207 71.2492 37.9419 72.0114 37.5936 72.7004C37.2572 73.3716 36.7608 73.9498 36.1481 74.3838L39.0346 79.4157H34.826L32.4244 75.2255H31.0154V79.3883H27.2598ZM31.0109 71.9273H33.3805C33.5102 71.917 33.6357 71.8765 33.7469 71.809C33.8581 71.7414 33.952 71.6488 34.0209 71.5384C34.2399 71.2244 34.3463 70.8456 34.3228 70.4634C34.3507 70.0694 34.2263 69.6796 33.9752 69.3747C33.8922 69.2678 33.788 69.1793 33.6691 69.1148C33.5502 69.0502 33.4192 69.011 33.2844 68.9996H30.9971L31.0109 71.9273Z" fill="#484444"/>
<path d="M50.5806 79.3882V72.2062L48.2933 77.2656H46.2942L44.007 72.2062V79.3882H40.2559V65.7424H44.3729L47.3189 72.1696L50.2786 65.7424H54.3591V79.3882H50.5806Z" fill="#484444"/>
<path d="M62.8353 79.5211C61.8601 79.534 60.8943 79.3293 60.0082 78.9218C59.1892 78.5441 58.4501 78.013 57.8307 77.3573C57.2304 76.7085 56.7544 75.9549 56.4264 75.1341C56.0955 74.3143 55.9262 73.4382 55.9277 72.5541C55.9276 71.6624 56.1033 70.7795 56.4447 69.9558C56.7843 69.136 57.2782 68.3891 57.8994 67.7554C58.5323 67.1109 59.2842 66.5951 60.1134 66.2367C60.9955 65.8498 61.9498 65.6548 62.913 65.6649C63.8882 65.652 64.854 65.8567 65.7401 66.2641C66.5602 66.6437 67.2984 67.1798 67.913 67.8423C68.5072 68.4932 68.9728 69.2507 69.2853 70.0747C69.6102 70.8881 69.7763 71.7561 69.7748 72.6319C69.7758 73.5207 69.6001 74.4008 69.2579 75.221C68.9174 76.0355 68.427 76.7787 67.8123 77.4122C67.1833 78.0575 66.4364 78.5762 65.612 78.9401C64.7387 79.3303 63.7917 79.5284 62.8353 79.5211ZM59.7383 72.5953C59.737 73.0475 59.8018 73.4975 59.9304 73.931C60.0505 74.3445 60.2459 74.7322 60.5068 75.0747C60.7675 75.4117 61.0985 75.688 61.4766 75.8844C61.9097 76.0989 62.3887 76.2041 62.8719 76.1908C63.3588 76.2028 63.8412 76.0944 64.2762 75.8752C64.6582 75.6746 64.991 75.3918 65.2506 75.0472C65.505 74.6949 65.694 74.2998 65.8087 73.8807C65.9285 73.4486 65.9901 73.0025 65.9917 72.5541C65.9937 72.1015 65.9274 71.6512 65.795 71.2183C65.6794 70.8042 65.4801 70.4181 65.2094 70.0839C64.9435 69.753 64.6097 69.4831 64.2305 69.2925C63.8025 69.0875 63.3325 68.9857 62.8581 68.9951C62.3752 68.9842 61.8968 69.0893 61.4629 69.3016C61.0833 69.4999 60.7522 69.7795 60.4931 70.1205C60.2332 70.4656 60.0408 70.8567 59.9259 71.2732C59.8018 71.703 59.7387 72.148 59.7383 72.5953Z" fill="#484444"/>
<path d="M75.1502 72.6911V79.3882H71.3945V65.7424H74.3222L79.8116 72.6911V65.7424H83.5582V79.3882H80.571L75.1502 72.6911Z" fill="#484444"/>
<path d="M88.6728 65.7425L91.1156 71.6482L93.6178 65.7425H97.6983L92.982 74.8915V79.3883H89.2629V74.8137L84.6289 65.7104L88.6728 65.7425Z" fill="#484444"/>
<path d="M13.2111 84.4934H9.98611V92.7549H9.09865V84.4934H5.89648V83.7065H13.2157L13.2111 84.4934Z" fill="#484444"/>
<path d="M20.645 91.9636V92.7549H14.5654V83.7065H20.5123V84.4934H15.4392V87.7596H19.8581V88.5098H15.4392V91.9636H20.645Z" fill="#484444"/>
<path d="M21.5599 88.1668C21.5623 87.6119 21.6582 87.0614 21.8435 86.5383C22.0315 86.0092 22.3153 85.5192 22.6807 85.0928C23.0582 84.6616 23.5167 84.3088 24.0302 84.0544C24.6007 83.7808 25.2274 83.6445 25.86 83.6564C26.5874 83.6337 27.3057 83.8228 27.9277 84.2007C28.4811 84.5416 28.9219 85.0381 29.1948 85.628L28.4949 86.0854C28.3637 85.806 28.184 85.552 27.9643 85.3352C27.7647 85.1382 27.5383 84.9703 27.2918 84.8366C27.0603 84.7112 26.8124 84.6188 26.5553 84.5621C26.3073 84.5081 26.0543 84.4805 25.8005 84.4798C25.3005 84.47 24.8057 84.5831 24.3595 84.8092C23.9552 85.0252 23.5989 85.3208 23.312 85.6783C23.0247 86.0362 22.806 86.4441 22.667 86.8814C22.5222 87.3244 22.4496 87.7877 22.452 88.2538C22.4508 88.7459 22.5391 89.2342 22.7127 89.6947C22.8781 90.1387 23.1196 90.5505 23.4263 90.9116C23.7232 91.2598 24.0872 91.5446 24.4968 91.7487C24.9133 91.9602 25.3746 92.0684 25.8417 92.0643C26.1053 92.0629 26.3678 92.0306 26.6239 91.9683C26.8961 91.9026 27.1578 91.7995 27.4016 91.6618C27.6544 91.5179 27.888 91.3427 28.0969 91.1403C28.316 90.9184 28.4968 90.6618 28.6321 90.3809L29.3732 90.7652C29.2299 91.1069 29.0217 91.4176 28.7602 91.6801C28.4977 91.9393 28.2006 92.161 27.8773 92.3388C27.554 92.5166 27.2098 92.6534 26.8527 92.7459C26.506 92.8356 26.1495 92.8817 25.7914 92.8832C25.1961 92.8914 24.6082 92.7515 24.0805 92.476C23.571 92.2117 23.1174 91.8513 22.7447 91.4147C22.3697 90.9718 22.074 90.4672 21.871 89.9235C21.6581 89.3626 21.5526 88.7667 21.5599 88.1668Z" fill="#484444"/>
<path d="M38.0279 83.7065V92.7549H37.1495V88.5372H31.7836V92.7687H30.8916V83.7065H31.7836V87.7321H37.1495V83.7065H38.0279Z" fill="#484444"/>
<path d="M41.1752 85.3625V92.7549H40.2832V83.7065H40.9694L46.962 91.2362V83.7157H47.854V92.7549H47.0718L41.1752 85.3625Z" fill="#484444"/>
<path d="M53.7647 92.8189C53.1675 92.8242 52.5772 92.6911 52.0401 92.43C51.5266 92.1797 51.0691 91.8281 50.6952 91.3962C50.3181 90.9623 50.0236 90.4631 49.826 89.9232C49.6252 89.3814 49.5215 88.8084 49.5195 88.2306C49.5185 87.6375 49.6286 87.0494 49.8443 86.4969C50.0581 85.9562 50.3681 85.4586 50.7592 85.0285C51.1395 84.6075 51.5978 84.2641 52.1087 84.0175C52.6338 83.7654 53.2097 83.6371 53.7921 83.6424C54.3911 83.6348 54.983 83.773 55.5167 84.0449C56.0285 84.3018 56.4842 84.6579 56.8571 85.0925C57.2278 85.5293 57.5189 86.0279 57.7171 86.5655C57.9174 87.1011 58.0212 87.668 58.0236 88.2398C58.0251 88.833 57.9149 89.4211 57.6988 89.9735C57.4934 90.5105 57.191 91.0052 56.8067 91.4328C56.4291 91.8536 55.9721 92.1956 55.4618 92.4392C54.9331 92.6952 54.3521 92.8251 53.7647 92.8189ZM50.4161 88.2443C50.4136 88.7272 50.4941 89.2069 50.654 89.6625C50.8107 90.1042 51.0446 90.5147 51.3448 90.8747C51.6377 91.2226 51.9969 91.5087 52.4015 91.7164C52.8276 91.9279 53.2981 92.0345 53.7738 92.0275C54.2513 92.0312 54.7224 91.9182 55.1462 91.6981C55.5532 91.4823 55.9126 91.1867 56.2029 90.8289C56.494 90.4682 56.72 90.0596 56.8708 89.6213C57.0274 89.1807 57.1079 88.7166 57.1087 88.2489C57.11 87.7639 57.0264 87.2824 56.8616 86.8262C56.7025 86.3874 56.4671 85.9801 56.1663 85.6232C55.8716 85.2765 55.5108 84.9919 55.105 84.786C54.6863 84.5766 54.2237 84.4699 53.7555 84.4749C53.2788 84.473 52.8085 84.5843 52.3832 84.7997C51.9746 85.0093 51.6146 85.3023 51.3265 85.6597C51.0344 86.0215 50.8083 86.4318 50.6586 86.872C50.5032 87.3083 50.4212 87.7675 50.4161 88.2306V88.2443Z" fill="#484444"/>
<path d="M59.6934 92.7549V83.7065H60.5854V91.9636H65.8095V92.7549H59.6934Z" fill="#484444"/>
<path d="M70.1918 92.8189C69.5946 92.8242 69.0043 92.6911 68.4672 92.43C67.9552 92.1773 67.4981 91.826 67.1223 91.3962C66.7449 90.9632 66.4517 90.4637 66.2577 89.9232C66.0547 89.382 65.9509 88.8086 65.9512 88.2306C65.9501 87.6375 66.0603 87.0494 66.276 86.4969C66.4895 85.956 66.7995 85.4584 67.1909 85.0284C67.5783 84.6055 68.0444 84.2621 68.5632 84.0175C69.0866 83.765 69.6611 83.6367 70.2421 83.6424C70.8425 83.635 71.4358 83.7731 71.9712 84.0449C72.4817 84.3019 72.9358 84.658 73.307 85.0925C73.6794 85.5281 73.9707 86.027 74.167 86.5655C74.3696 87.1005 74.4734 87.6677 74.4735 88.2398C74.475 88.8329 74.3648 89.4211 74.1487 89.9735C73.9434 90.5105 73.641 91.0052 73.2567 91.4328C72.8801 91.8547 72.4228 92.1968 71.9118 92.4392C71.3761 92.6986 70.7869 92.8287 70.1918 92.8189ZM66.8432 88.2443C66.8402 88.7276 66.9222 89.2076 67.0857 89.6624C67.2389 90.1048 67.4714 90.5156 67.7718 90.8747C68.0647 91.2226 68.4239 91.5087 68.8286 91.7164C69.2549 91.9274 69.7253 92.034 70.2009 92.0275C70.6784 92.0312 71.1495 91.9182 71.5733 91.6981C71.9803 91.4823 72.3397 91.1867 72.63 90.8289C72.9206 90.4672 73.1479 90.0588 73.3024 89.6213C73.4559 89.18 73.5348 88.7161 73.5357 88.2489C73.5371 87.7639 73.4535 87.2824 73.2887 86.8262C73.1313 86.3866 72.8958 85.979 72.5934 85.6231C72.3003 85.2766 71.9411 84.992 71.5367 84.786C71.1108 84.5737 70.6401 84.467 70.1643 84.4749C69.6875 84.4718 69.2168 84.5831 68.792 84.7997C68.3834 85.0093 68.0234 85.3023 67.7352 85.6597C67.4417 86.0213 67.2141 86.4316 67.0628 86.872C66.9167 87.3099 66.844 87.769 66.8478 88.2306L66.8432 88.2443Z" fill="#484444"/>
<path d="M82.6568 91.4285C82.3003 91.8533 81.8561 92.196 81.3547 92.4328C80.8532 92.6697 80.3065 92.7953 79.7519 92.8009C79.1653 92.8072 78.586 92.6706 78.0639 92.4029C77.5534 92.146 77.0981 91.7916 76.7236 91.3599C76.3457 90.9241 76.047 90.4256 75.8407 89.8869C75.6283 89.3495 75.5197 88.7768 75.5205 88.1989C75.5193 87.607 75.6247 87.0197 75.8316 86.4652C76.0305 85.9291 76.3267 85.4344 76.7053 85.0059C77.0775 84.5869 77.5282 84.245 78.0319 83.9995C78.5517 83.7461 79.1234 83.6176 79.7016 83.6244C80.1089 83.6192 80.5151 83.6684 80.9093 83.7708C81.2535 83.8588 81.5832 83.9959 81.8882 84.1779C82.1643 84.3462 82.4127 84.556 82.6247 84.8C82.8337 85.0425 83.0119 85.3099 83.1554 85.596L82.4646 86.0535C82.2105 85.5357 81.8075 85.1056 81.3073 84.8183C80.811 84.5478 80.253 84.4107 79.6879 84.4204C79.2109 84.4111 78.7392 84.5212 78.3155 84.7406C77.9174 84.9482 77.5669 85.2364 77.2863 85.5869C76.9944 85.9473 76.7712 86.3582 76.6276 86.7991C76.4757 87.2533 76.3985 87.7291 76.3988 88.2081C76.3964 88.7033 76.4848 89.1948 76.6596 89.6582C76.8246 90.1006 77.0678 90.5097 77.3778 90.8659C77.6809 91.2065 78.0476 91.4847 78.4574 91.6847C78.8753 91.8912 79.3361 91.9962 79.8023 91.9912C80.3182 91.9919 80.8267 91.8679 81.2844 91.6298C81.8155 91.3429 82.2825 90.9506 82.6568 90.477V88.9949H80.644V88.3041H83.3887V92.7551H82.6385L82.6568 91.4285Z" fill="#484444"/>
<path d="M84.9122 83.7065L87.8902 88.5738L90.8683 83.7065H91.8381L88.334 89.3881V92.7549H87.4191V89.3652L83.9287 83.7065H84.9122Z" fill="#484444"/>
<path d="M34.1494 20.0879L35.2905 23.1011H62.1358L63.2769 20.0879H34.1494Z" fill="#F9B700"/>
<path d="M64.2844 19.0835L69.3033 7.69637C68.2258 8.26505 67.0901 8.70804 65.9175 9.01716C66.1591 9.51525 66.284 10.0649 66.2824 10.6219C66.2824 11.0919 66.1926 11.5574 66.0183 11.9917C65.8439 12.4261 65.5883 12.8207 65.2662 13.1531C64.944 13.4855 64.5615 13.7492 64.1406 13.9291C63.7196 14.109 63.2684 14.2016 62.8128 14.2016C61.9394 14.1943 61.101 13.8468 60.4654 13.2288C59.8298 12.6108 59.4439 11.7678 59.3851 10.8687C59.7851 10.7232 60.1512 10.4933 60.4602 10.1936C60.7692 9.89397 61.0143 9.53112 61.1797 9.12825C61.3408 8.73812 61.4223 8.31792 61.419 7.89387C61.4198 7.48242 61.3419 7.07486 61.1898 6.6945C61.0378 6.31414 60.8145 5.96845 60.5328 5.67723C60.2511 5.38601 59.9165 5.15496 59.5481 4.99732C59.1798 4.83968 58.7849 4.75854 58.3861 4.75854C57.6887 4.75343 57.0108 4.99599 56.4661 5.44551C55.9215 5.89503 55.5434 6.52416 55.3951 7.2273C55.3536 7.4303 55.3315 7.63703 55.3293 7.84449C55.3308 8.50699 55.5352 9.15204 55.9134 9.68744C56.2916 10.2228 56.8242 10.6212 57.435 10.8255C57.3672 11.7222 56.9742 12.5596 56.3344 13.1705C55.6946 13.7814 54.8551 14.1209 53.9833 14.1213C53.0642 14.1197 52.1832 13.7418 51.5338 13.0707C50.8845 12.3995 50.5197 11.4899 50.5197 10.5416C50.5203 9.79301 50.7484 9.06343 51.1718 8.45551C52.1417 7.80789 52.8368 6.80399 53.1159 5.6473C51.2458 4.12768 49.7257 2.19891 48.6653 0C47.6121 2.19142 46.1001 4.11402 44.2386 5.62878C44.5157 6.79303 45.2133 7.80415 46.1888 8.45551C46.6122 9.06343 46.8402 9.79301 46.8408 10.5416C46.8408 11.4899 46.4761 12.3995 45.8267 13.0707C45.1773 13.7418 44.2964 14.1197 43.3772 14.1213C42.5286 14.1144 41.7119 13.7863 41.0823 13.1992C40.4526 12.6122 40.0538 11.807 39.9615 10.9366C40.6005 10.7545 41.164 10.3614 41.5659 9.81745C41.9678 9.27351 42.1859 8.60869 42.1868 7.92473C42.1869 7.68143 42.1588 7.439 42.103 7.20262C41.9465 6.51544 41.5693 5.90305 41.0329 5.46495C40.4964 5.02685 39.8321 4.78878 39.1479 4.7894C38.7491 4.7894 38.3543 4.87054 37.9859 5.02818C37.6175 5.18582 37.2829 5.41687 37.0012 5.70809C36.7195 5.99931 36.4962 6.345 36.3442 6.72536C36.1921 7.10572 36.1142 7.51328 36.115 7.92473C36.1109 8.34825 36.1902 8.76823 36.3483 9.15911C36.5069 9.54844 36.7403 9.90063 37.0343 10.1944C37.3283 10.4883 37.677 10.7176 38.0592 10.8687C37.9998 11.7774 37.6063 12.6283 36.9593 13.2477C36.3122 13.8672 35.4603 14.2083 34.5776 14.2016C33.6585 14.1999 32.7775 13.8221 32.1282 13.1509C31.4788 12.4798 31.1141 11.5702 31.1141 10.6219C31.113 10.0549 31.2443 9.496 31.4969 8.99247C30.3386 8.77354 29.2072 8.42375 28.123 7.94942L33.136 19.0588L64.2844 19.0835Z" fill="#F9B700"/>
<path d="M44.1939 45.3401H41.3887V32.1406H35.1543V57.2505H41.3887V50.8646H44.1939V45.3401Z" fill="#F9B700"/>
<path d="M56.0852 45.3401H53.2334V50.8646H56.0852V57.2505H62.273V32.1406H56.0852V45.3401Z" fill="#F9B700"/>
<path d="M62.2434 30.5885H51.8546V57.2506H45.5727V30.5885H35.1543V25.1099H62.273L62.2434 30.5885Z" fill="#F9B700"/>
<path d="M70.7358 96.6021H26.9531V97H70.7358V96.6021Z" fill="#F9B700"/>
</svg>
